<svg xmlns="http://www.w3.org/2000/svg" viewBox="0 0 77.61 65.18"><defs><style>.cls-1{fill:none;}.cls-2{fill:#7c1616;}</style></defs><title>Asset 6</title><g id="Layer_2" data-name="Layer 2"><g id="Layer_1-2" data-name="Layer 1"><rect class="cls-1" x="12.64" y="26.3" width="1.56" height="4.2"/><path class="cls-1" d="M24.7,39.09h1.05V27.65A1.36,1.36,0,0,0,24.4,26.3H15.51v4.21H24.7Z"/><rect class="cls-1" x="24.7" y="40.4" width="1.04" height="6.84"/><path class="cls-1" d="M24.7,60.4H2.35V30.51h9V26.3H2.65a1.35,1.35,0,0,0-1.34,1.35V62.53a1.35,1.35,0,0,0,1.34,1.35H24.4a1.36,1.36,0,0,0,1.35-1.35v-14H24.7ZM13.53,63.17A1.16,1.16,0,1,1,14.68,62,1.16,1.16,0,0,1,13.53,63.17Z"/><path class="cls-1" d="M13.53,61.51A.51.51,0,1,0,14,62,.51.51,0,0,0,13.53,61.51Z"/><path class="cls-1" d="M27.05,27.65V39.09H73.43V3.81H15.51V25H24.4A2.65,2.65,0,0,1,27.05,27.65Z"/><path class="cls-1" d="M11.33,45.5V31.16H3V59.74H24.05V48.55H14.38A3.06,3.06,0,0,1,11.33,45.5Z"/><rect class="cls-1" x="15.51" y="31.16" width="8.54" height="7.93"/><path class="cls-1" d="M14.2,31.16H12.64V45.5a1.74,1.74,0,0,0,1.74,1.74h9.67V40.4H14.2Z"/><path class="cls-1" d="M58,53.91H49.84l0-.69V51.63a.22.22,0,0,0-.22-.22H39.29a.22.22,0,0,0-.22.22v2.28H30.93a.22.22,0,0,0-.22.22v1.62a.21.21,0,0,0,.22.21H58a.21.21,0,0,0,.22-.21V54.13A.22.22,0,0,0,58,53.91Z"/><path class="cls-1" d="M44.47,43.57a1.22,1.22,0,1,0,1.23,1.22A1.22,1.22,0,0,0,44.47,43.57Z"/><path class="cls-1" d="M14.2,2.5H74.74V40.4H27.05v6.84H74.57a1.74,1.74,0,0,0,1.74-1.74V3.05a1.74,1.74,0,0,0-1.74-1.74H14.38a1.74,1.74,0,0,0-1.74,1.74V25H14.2ZM44.47,46.67a1.88,1.88,0,1,1,1.88-1.88A1.88,1.88,0,0,1,44.47,46.67Z"/><path class="cls-2" d="M74.57,0H14.38a3.06,3.06,0,0,0-3.05,3.05V24.34h1.31V3.05a1.74,1.74,0,0,1,1.74-1.74H74.57a1.74,1.74,0,0,1,1.74,1.74V45.5a1.74,1.74,0,0,1-1.74,1.74H27.71v1.31H74.57a3,3,0,0,0,3-3V3.05A3,3,0,0,0,74.57,0Z"/><polygon class="cls-2" points="15.51 3.81 73.43 3.81 73.43 39.09 27.71 39.09 27.71 40.4 74.74 40.4 74.74 2.5 14.2 2.5 14.2 24.34 15.51 24.34 15.51 3.81"/><path class="cls-2" d="M58,52.6H51.18v-1a1.52,1.52,0,0,0-1.52-1.52H39.29a1.53,1.53,0,0,0-1.53,1.52v1H30.93a1.53,1.53,0,0,0-1.52,1.53v1.62a1.52,1.52,0,0,0,1.52,1.52H58a1.53,1.53,0,0,0,1.53-1.52V54.13A1.54,1.54,0,0,0,58,52.6Zm.22,3.15A.21.21,0,0,1,58,56H30.93a.21.21,0,0,1-.22-.21V54.13a.22.22,0,0,1,.22-.22h8.14V51.63a.22.22,0,0,1,.22-.22H49.66a.22.22,0,0,1,.22.22v1.59l0,.69H58a.22.22,0,0,1,.22.22Z"/><path class="cls-2" d="M44.47,42.91a1.88,1.88,0,1,0,1.88,1.88A1.88,1.88,0,0,0,44.47,42.91Zm0,3.1a1.22,1.22,0,1,1,1.23-1.22A1.22,1.22,0,0,1,44.47,46Z"/><rect class="cls-2" x="12.64" y="25" width="1.56" height="1.31"/><path class="cls-2" d="M25.75,27.65V39.09h1.3V27.65A2.65,2.65,0,0,0,24.4,25H15.51v1.3H24.4A1.36,1.36,0,0,1,25.75,27.65Z"/><rect class="cls-2" x="25.75" y="40.4" width="1.31" height="6.84"/><path class="cls-2" d="M25.75,62.53a1.36,1.36,0,0,1-1.35,1.35H2.65a1.35,1.35,0,0,1-1.34-1.35V27.65A1.35,1.35,0,0,1,2.65,26.3h8.68V25H2.65A2.65,2.65,0,0,0,0,27.65V62.53a2.65,2.65,0,0,0,2.65,2.65H24.4a2.65,2.65,0,0,0,2.65-2.65v-14h-1.3Z"/><rect class="cls-2" x="25.75" y="47.24" width="1.31" height="1.31"/><rect class="cls-2" x="11.33" y="25" width="1.31" height="1.31"/><rect class="cls-2" x="14.2" y="25" width="1.31" height="1.31"/><rect class="cls-2" x="25.75" y="39.09" width="1.31" height="1.31"/><polygon class="cls-2" points="24.05 59.74 3 59.74 3 31.16 11.33 31.16 11.33 30.51 2.35 30.51 2.35 60.4 24.7 60.4 24.7 48.55 24.05 48.55 24.05 59.74"/><rect class="cls-2" x="24.05" y="40.4" width="0.65" height="6.84"/><polygon class="cls-2" points="24.05 31.16 24.05 39.09 24.7 39.09 24.7 30.51 15.51 30.51 15.51 31.16 24.05 31.16"/><rect class="cls-2" x="12.64" y="30.51" width="1.56" height="0.65"/><rect class="cls-2" x="11.33" y="30.51" width="1.31" height="0.65"/><rect class="cls-2" x="24.05" y="47.24" width="0.65" height="1.31"/><rect class="cls-2" x="24.05" y="39.09" width="0.65" height="1.31"/><rect class="cls-2" x="14.2" y="30.51" width="1.31" height="0.65"/><path class="cls-2" d="M13.53,60.86A1.16,1.16,0,1,0,14.68,62,1.16,1.16,0,0,0,13.53,60.86Zm0,1.66a.51.51,0,0,1,0-1,.51.51,0,0,1,0,1Z"/></g></g></svg>