<svg xmlns="http://www.w3.org/2000/svg" viewBox="0 0 49.8 53.6"><defs><style>.cls-1{fill:none;}.cls-2{fill:#7c1616;}</style></defs><title>Asset 5</title><g id="Layer_2" data-name="Layer 2"><g id="Layer_1-2" data-name="Layer 1"><path class="cls-1" d="M18,48.7a.67.67,0,1,0,.67.67A.67.67,0,0,0,18,48.7Z"/><path class="cls-2" d="M18,47.83a1.54,1.54,0,1,0,1.54,1.54A1.54,1.54,0,0,0,18,47.83ZM18,50a.67.67,0,1,1,.67-.67A.67.67,0,0,1,18,50Z"/><path class="cls-1" d="M28.78,20.56a3.31,3.31,0,0,1-3.58,1.51,2.33,2.33,0,0,0,.1.44l.09.25a3.91,3.91,0,0,0,3.75-1.55l0-.08A2,2,0,0,0,28.78,20.56Z"/><rect class="cls-1" x="32.95" y="18.79" width="1.39" height="1.74"/><path class="cls-1" d="M18,47.83a1.54,1.54,0,1,0,1.54,1.54A1.54,1.54,0,0,0,18,47.83Z"/><path class="cls-1" d="M28.72,44.12c-.27-.33-.49-.59-.63-.74A55.44,55.44,0,0,0,20.79,38,2.66,2.66,0,0,1,19,36.4a2.53,2.53,0,0,1,.76-2.23c1.36-1.66,6.05-.27,9.2.93L24.48,22.81a1.77,1.77,0,0,1-.08-.31,4.06,4.06,0,1,1,5.26-2.22,2.67,2.67,0,0,1,.28.56l2.14,5.93V8.22H4V46.34H30.72C29.89,45.51,29.21,44.71,28.72,44.12Zm-6.08-29.3A5.17,5.17,0,0,1,26,13.63a.22.22,0,1,1,0,.44,4.69,4.69,0,0,0-2.88,8.43,4.86,4.86,0,0,0,1.25.67.22.22,0,0,1,.14.28.22.22,0,0,1-.14.13.17.17,0,0,1-.14,0,5.12,5.12,0,0,1-1.56-8.76Z"/><path class="cls-1" d="M33,28a3,3,0,0,1,1-.67,3.37,3.37,0,0,1,.34-.09V20.54H33Z"/><path class="cls-1" d="M18,50.91a1.54,1.54,0,1,1,1.54-1.54A1.54,1.54,0,0,1,18,50.91Z"/><path class="cls-2" d="M32.55,0h-29A3.55,3.55,0,0,0,0,3.54V50.06A3.55,3.55,0,0,0,3.54,53.6h29a3.54,3.54,0,0,0,3.53-3.54v-.38A9.32,9.32,0,0,1,34.34,49v1a1.79,1.79,0,0,1-1.79,1.79h-29a1.8,1.8,0,0,1-1.8-1.79V3.54a1.81,1.81,0,0,1,1.8-1.8h29a1.8,1.8,0,0,1,1.79,1.8V27.25a2.94,2.94,0,0,1,1.74.14V3.54A3.54,3.54,0,0,0,32.55,0Z"/><path class="cls-2" d="M4,46.34V8.22H15.11V7.35h-12V47.21H31.66c-.34-.29-.65-.58-.94-.87Z"/><path class="cls-2" d="M32.08,26.77l.57,1.59A2.52,2.52,0,0,1,33,28V20.54h-.87Z"/><polygon class="cls-2" points="32.08 8.22 32.08 18.8 32.95 18.8 32.95 7.35 20.69 7.35 20.69 8.22 32.08 8.22"/><rect class="cls-2" x="16.86" y="7.35" width="2.09" height="0.87"/><rect class="cls-2" x="15.11" y="7.35" width="1.74" height="0.87"/><rect class="cls-2" x="32.08" y="18.79" width="0.87" height="1.74"/><rect class="cls-2" x="18.94" y="7.35" width="1.74" height="0.87"/><path class="cls-1" d="M26.52,19.92a2,2,0,0,0-1.32,2.15,3.31,3.31,0,0,0,3.58-1.51A2,2,0,0,0,26.52,19.92Z"/><path class="cls-1" d="M29.12,17.6a3.4,3.4,0,1,0-4.81,4.14,2.89,2.89,0,0,1,4.86-2A3.36,3.36,0,0,0,29.12,17.6Z"/><path class="cls-1" d="M33,29.71v1.7h1.39V29.67H33Z"/><path class="cls-1" d="M33,29.6s0,0,0,.07h1.36V28.16h0A2,2,0,0,0,33,29.6Z"/><path class="cls-2" d="M22.72,19.91a3.4,3.4,0,0,1,6.4-2.31,3.36,3.36,0,0,1,.05,2.1,2.7,2.7,0,0,1,.49.58,4,4,0,0,0,.08-2.9A4.06,4.06,0,1,0,24.4,22.5a2.82,2.82,0,0,1-.09-.76A3.42,3.42,0,0,1,22.72,19.91Z"/><path class="cls-2" d="M22.83,22.85a5.16,5.16,0,0,0,1.37.73.17.17,0,0,0,.14,0,.22.22,0,0,0,.14-.13.22.22,0,0,0-.14-.28,4.86,4.86,0,0,1-1.25-.67A4.69,4.69,0,0,1,26,14.07a.22.22,0,1,0,0-.44,5.13,5.13,0,0,0-3.14,9.22Z"/><path class="cls-2" d="M26.22,19.09a2.92,2.92,0,0,0-1.91,2.65,3.53,3.53,0,0,0,.89.33,2,2,0,0,1,3.58-1.51,2.92,2.92,0,0,0,.39-.86A2.9,2.9,0,0,0,26.22,19.09Z"/><path class="cls-2" d="M33,29.67h0v0Z"/><path class="cls-2" d="M29.66,20.28a3.69,3.69,0,0,1-.52.93l2.94,8.15V26.77l-2.14-5.93A2.67,2.67,0,0,0,29.66,20.28Z"/><path class="cls-2" d="M49.23,35.56c-.06-.18-.2-.52-.28-.72l-.06-.14-1.75-4.86a2.91,2.91,0,0,0-3.72-1.75l-.37.14a3.12,3.12,0,0,0-.49.23,2.9,2.9,0,0,0-3.67-1.64l-.37.13a2.87,2.87,0,0,0-1.43,1.13,3,3,0,0,0-1-.69v1a2.07,2.07,0,0,1,.69.75.44.44,0,0,0,.81-.07,2,2,0,0,1,1.23-1.28l.38-.14a2,2,0,0,1,2.59,1.22l.16.45a.46.46,0,0,0,.31.28.45.45,0,0,0,.4-.11,2.21,2.21,0,0,1,.7-.43l.37-.13a2,2,0,0,1,2.59,1.22L48.07,35a1,1,0,0,0,.07.17c.08.2.21.52.27.69C50.13,40.63,47.33,46.2,42.29,48c-.88.31-2.4.78-2.54.83a6.88,6.88,0,0,1-3.67-.1v.93a7.68,7.68,0,0,0,3.9,0h0c.07,0,1.65-.51,2.59-.85a10.94,10.94,0,0,0,6.12-5.43A9.93,9.93,0,0,0,49.23,35.56Z"/><path class="cls-2" d="M29.4,43.56a10.32,10.32,0,0,0-.7-.8c-1.16-1.16-6.52-5.24-7.61-5.63-.28-.11-1.14-.42-1.29-1s.25-1,.58-1.45c.79-.95,4.32-.37,9,1.5a.49.49,0,0,0,.58,0,.42.42,0,0,0,.11-.46L25.39,22.76a3.81,3.81,0,0,1-1-.26,1.77,1.77,0,0,0,.08.31L28.91,35.1c-3.15-1.2-7.84-2.59-9.2-.93A2.53,2.53,0,0,0,19,36.4,2.66,2.66,0,0,0,20.79,38a55.44,55.44,0,0,1,7.3,5.43c.14.15.36.41.63.74.49.59,1.17,1.39,2,2.22H32A25.26,25.26,0,0,1,29.4,43.56Z"/><path class="cls-2" d="M33,28v1.66h0s0,0,0-.07a2,2,0,0,1,1.28-1.43h0v-.91a3.37,3.37,0,0,0-.34.09A3,3,0,0,0,33,28Z"/><path class="cls-2" d="M33,47.21H31.66A12.47,12.47,0,0,0,34.34,49V48A11.09,11.09,0,0,1,33,47.11Z"/><path class="cls-2" d="M34.34,27.25v.91a2,2,0,0,1,1.74.22v-1A2.94,2.94,0,0,0,34.34,27.25Z"/><path class="cls-2" d="M34.34,48v1a9.32,9.32,0,0,0,1.74.66v-.93A8.89,8.89,0,0,1,34.34,48Z"/><path class="cls-2" d="M30.72,46.34c.29.29.6.58.94.87H33v-.1c-.33-.25-.65-.51-1-.77Z"/><path class="cls-2" d="M32.65,28.36l-.57-1.59v2.59l.1.29,0,0H33V28A2.52,2.52,0,0,0,32.65,28.36Z"/><path class="cls-2" d="M32.62,29.94a.46.46,0,0,0,.33-.23v0H32.2A.45.45,0,0,0,32.62,29.94Z"/><path class="cls-2" d="M29.17,19.7a2.92,2.92,0,0,1-.39.86,2,2,0,0,1,.33.57l0,.08a3.69,3.69,0,0,0,.52-.93A2.7,2.7,0,0,0,29.17,19.7Z"/><path class="cls-2" d="M25.2,22.07a3.53,3.53,0,0,1-.89-.33,2.82,2.82,0,0,0,.09.76,3.81,3.81,0,0,0,1,.26l-.09-.25A2.33,2.33,0,0,1,25.2,22.07Z"/></g></g></svg>